<?xml version="1.0" encoding="utf-8"?>
<!-- Generator: Adobe Illustrator 26.2.1, SVG Export Plug-In . SVG Version: 6.00 Build 0)  -->
<svg version="1.1" id="Layer_1" xmlns="http://www.w3.org/2000/svg" xmlns:xlink="http://www.w3.org/1999/xlink" x="0px" y="0px"
	 viewBox="0 0 1000 128.9" style="enable-background:new 0 0 1000 128.9;" xml:space="preserve">
<style type="text/css">
	.st0{fill:#FFBF00;}
	.st1{fill:#FFFFFF;}
	.st2{fill:url(#SVGID_1_);}
	.st3{fill:url(#SVGID_00000099646338655797239750000013536036566461584539_);}
	.st4{fill:url(#SVGID_00000101090269246871660420000003480000025686653591_);}
	.st5{fill:url(#SVGID_00000115489146572647418990000014488751798445179566_);}
	.st6{fill:url(#SVGID_00000155867623884577606070000011037947343996173701_);}
</style>
<rect x="0" class="st0" width="1000" height="128.9"/>
<g>
	<path class="st1" d="M216.4,20.2v-2.3h-20.8v2.3h2.1c4.6,0,6.9,1.8,6.9,5.4V97c0,4.4-2.2,6.6-6.5,6.6h-1.4v2.3h27.8v-2.3h-1.6
		c-4.3,0-6.4-2.2-6.4-6.6v-9.8V66.8v-2.3V20.2z"/>
	<g>
		<g>
			<path class="st1" d="M79.2,67c-2.8-4.1-7.5-7.4-14-9.8c-2-0.8-4-1.3-6-1.6c-2-0.3-4-0.5-6.1-0.7c-2-0.2-4-0.4-6-0.7
				c-2-0.3-4-0.8-5.9-1.5c-1.9-0.7-3.7-1.7-5.4-3.1c-1.7-1.4-3.3-3.3-4.7-5.7c-1.9-3.2-2.8-6.2-2.8-8.9c0-2.3,0.6-4.4,1.7-6.3
				c1.1-1.9,2.6-3.5,4.6-4.8c1.9-1.3,4.1-2.4,6.7-3.1c2.5-0.7,5.1-1.1,7.9-1.2c4,0,7.7,0.8,10.8,2.3c3.2,1.6,6,3.5,8.5,6
				c2.5,2.5,4.5,5.3,6.3,8.5c1.7,3.2,3.1,6.4,4.1,9.7l1.8-0.5C79,37.7,78.1,29.5,78.3,21H76c-0.1,0.9-0.4,1.6-0.8,2.1
				c-0.4,0.6-1.1,0.8-2.1,0.8c-0.4,0-1-0.1-1.8-0.3c-0.8-0.2-1.5-0.5-2.2-0.8c-2.8-1.6-5.8-2.9-9.2-4c-3.4-1.1-6.7-1.6-9.9-1.5
				c-4.9,0-9.2,0.6-12.9,1.9c-3.7,1.3-6.8,3-9.2,5.1c-2.5,2.1-4.3,4.6-5.5,7.4c-1.2,2.8-1.8,5.7-1.8,8.6c0,3.1,0.7,6.2,2.1,9.2
				c1.4,3,3.4,5.8,6.1,8.2c2.7,2.5,5.9,4.5,9.8,6.1c3.9,1.6,8.3,2.6,13.3,3c3.4,0.5,6.5,1.4,9.3,2.7c2.8,1.3,5.1,2.8,7,4.6
				c1.9,1.8,3.4,3.7,4.4,5.8c1,2.1,1.5,4.2,1.5,6.4c0,2-0.5,3.9-1.3,5.8c-0.9,1.9-2.3,3.6-4,5.2c-1.8,1.6-3.9,2.9-6.5,4
				c-2.5,1.1-5.5,1.8-8.8,2.1c-3.9,0-7.6-0.8-11.1-2.3c-3.5-1.5-6.7-3.5-9.6-6c-2.9-2.5-5.4-5.3-7.5-8.5c-2.1-3.2-3.7-6.4-4.8-9.8
				l-1.9,0.4c1.8,8.2,2.7,16.4,2.7,24.8h2.5c0.2-0.9,0.5-1.6,0.9-2.1c0.4-0.6,1.2-0.8,2.3-0.8c0.4,0,1.1,0.1,1.9,0.3
				c0.8,0.2,1.7,0.5,2.5,0.8c3.5,1.9,7.1,3.3,10.8,4.3c3.7,0.9,7.5,1.3,11.4,1.2c4.7-0.2,8.9-1,12.7-2.6c3.7-1.6,6.8-3.5,9.4-5.9
				c2.6-2.4,4.6-5.1,5.9-8.1c1.4-3,2.1-6.1,2.1-9.3C83.5,75.4,82.1,71.1,79.2,67z"/>
		</g>
	</g>
	<g>
		<g>
			<path class="st1" d="M422.7,17.6v2.3h2.2c2.2,0,3.8,0.5,4.8,1.4c0.9,0.9,1.4,2.3,1.4,4.1v49c0,4-0.7,7.7-2.2,11.1
				c-1.5,3.4-3.5,6.4-6.1,8.9c-2.6,2.5-5.6,4.5-9.1,5.9c-3.5,1.5-7.3,2.2-11.3,2.2c-2.5,0-4.9-0.6-7.3-1.7c-2.4-1.2-4.5-2.7-6.3-4.6
				c-1.8-1.9-3.2-4.1-4.3-6.6c-1-2.5-1.5-5.1-1.4-7.9V25.5c0-3.7,2.3-5.5,6.8-5.5h2.2v-2.3h-29.8v2.3h2.2c4.5,0,6.7,1.8,6.7,5.5
				v53.2c0,4.3,0.8,8.1,2.5,11.5c1.6,3.4,3.9,6.2,6.7,8.5c2.8,2.3,6.2,4.1,9.9,5.3c3.8,1.2,7.8,1.8,12.1,1.8c4.3,0,8.4-0.8,12.2-2.5
				c3.8-1.6,7.2-3.9,10-6.7c2.8-2.8,5.1-6.2,6.8-10c1.7-3.8,2.5-7.9,2.5-12.2v-49c0-3.7,2.2-5.5,6.7-5.5h2.1v-2.3H422.7z"/>
		</g>
	</g>
	<g>
		<g>
			<path class="st1" d="M515.9,99.9c-0.9-1.2-1.8-3-2.5-5.5c-0.7-2.4-1.4-5.2-2.1-8.2c-0.4-1.6-0.8-3.3-1.3-5.2
				c-0.5-1.9-1.3-3.8-2.2-5.7c-0.9-1.9-2.2-3.7-3.7-5.4c-1.5-1.7-3.4-3.2-5.7-4.4c2.6-0.8,5-1.9,7.1-3.4c2.1-1.5,4-3.2,5.6-5.3
				c1.5-2.1,2.8-4.3,3.6-6.9c0.9-2.5,1.3-5.1,1.3-7.9c0-3.4-0.6-6.7-1.9-9.6c-1.3-3-3-5.5-5.2-7.7c-2.2-2.2-4.8-3.9-7.7-5.2
				c-3-1.2-6.1-1.9-9.5-1.9h-41.7v2.3h2.1c4.6,0,6.9,1.8,6.9,5.4v71.4c0,4.4-2.2,6.6-6.5,6.6h-1.4v2.3h27.8v-2.3H477
				c-4.3,0-6.4-2.2-6.4-6.6V66.7h9.7c4,0,7.8,1.3,11.1,3.9c3.4,2.6,5.9,7.2,7.7,13.7c0.2,0.7,0.4,1.4,0.5,2.3
				c0.2,0.8,0.4,1.6,0.5,2.4c0.4,2,0.9,4,1.5,6c0.6,2,1.3,3.8,2.2,5.4c0.9,1.6,2.1,2.9,3.4,3.9c1.4,1,3.2,1.6,5.4,1.6h10.6v-2.3
				C519.9,103.5,517.5,102.3,515.9,99.9z M491.7,62.4c-2.7,1.2-5.5,1.9-8.6,1.9h-12.6V20.1h12.6c3,0.1,5.9,0.7,8.6,1.9
				c2.7,1.2,5,2.8,7,4.8c2,2,3.5,4.3,4.7,7c1.1,2.6,1.7,5.5,1.7,8.5s-0.6,5.9-1.7,8.5c-1.1,2.7-2.7,5-4.7,7
				C496.7,59.6,494.4,61.2,491.7,62.4z"/>
		</g>
	</g>
	<g>
		<g>
			<path class="st1" d="M544.5,93.9c-1.3-1.3-3-2-5-2c-1.9,0-3.5,0.7-4.8,2c-1.3,1.3-2,3-2,5c0,2,0.7,3.6,2,5c1.3,1.3,3,2,4.8,2
				c2,0,3.6-0.7,5-2c1.3-1.3,2-3,2-5C546.5,96.9,545.9,95.2,544.5,93.9z"/>
		</g>
	</g>
	<g>
		<g>
			<path class="st1" d="M650.4,17.5v2.2h0.7c1.3,0,2.5,0.4,3.6,1.3c1.1,0.9,1.3,2.1,0.7,3.7l-24,63.3c-2.4-6.5-4.8-13-7.3-19.6
				c-2.5-6.6-4.9-13.3-7.3-20l9-23.6c0.8-1.5,1.7-2.7,2.6-3.6c0.9-0.9,1.9-1.4,3.1-1.4h3.3v-2.2h-17v2.2h0.7c1.3,0,2.5,0.4,3.6,1.3
				c1.1,0.9,1.3,2.1,0.7,3.7l-7.5,19.8l-6.7-18.3c-0.7-1.9-0.7-3.5-0.1-4.7c0.6-1.2,2-1.8,4.2-1.8h0.7v-2.2H588v2.2h2.6
				c2.2,0,4.3,1.7,6.1,5l13.1,34.8L599,88c-3.7-10-7.5-20.3-11.3-30.8c-3.8-10.5-7.6-20.8-11.3-31c-0.7-1.9-0.7-3.5-0.1-4.7
				c0.6-1.2,2-1.8,4.2-1.8h0.7v-2.2h-25.6v2.2h2.6c2.2,0,4.3,1.7,6.1,5l30.6,81.7l16.4-43.1l16.1,43.1l31-81.7
				c0.8-1.5,1.7-2.7,2.6-3.6c0.9-0.9,2-1.4,3.1-1.4h3.4v-2.2H650.4z"/>
		</g>
	</g>
	<g>
		<g>
			<path class="st1" d="M748.2,44.7c-2.2-5.3-5.2-10-9.2-14c-3.9-4-8.5-7.2-13.8-9.5c-5.3-2.3-11.1-3.5-17.2-3.5
				c-6,0.4-11.5,1.7-16.7,4.1c-5.2,2.4-9.6,5.5-13.4,9.5c-3.8,4-6.8,8.5-9,13.7c-2.2,5.2-3.3,10.8-3.3,16.9
				c-0.1,6.6,1.1,12.6,3.4,18c2.4,5.4,5.6,10,9.6,13.8c4,3.8,8.6,6.8,13.9,8.9c5.2,2.1,10.8,3.2,16.7,3.2c6-0.1,11.6-1.3,16.8-3.6
				c5.2-2.3,9.7-5.5,13.5-9.5c3.8-4,6.8-8.7,8.9-14c2.1-5.3,3.1-11,3-16.9C751.5,55.7,750.4,50.1,748.2,44.7z M737,76.3
				c-1.3,5-3.1,9.4-5.7,13.5c-2.5,4-5.7,7.4-9.5,9.9c-3.8,2.6-8.2,3.9-13.3,3.9c-3.5,0-6.7-0.6-9.6-1.9c-2.9-1.3-5.5-3-7.7-5.1
				c-2.3-2.2-4.3-4.6-5.9-7.4c-1.6-2.8-3-5.7-4.1-8.9c-1.1-3.1-1.9-6.2-2.4-9.4c-0.5-3.2-0.8-6.2-0.8-9.2c0-4.6,0.6-9.4,1.8-14.4
				c1.2-5,3-9.4,5.5-13.5c2.5-4,5.6-7.4,9.3-9.9c3.7-2.6,8.1-3.9,13.2-3.9c5.3,0,9.9,1.3,13.8,4.1c3.9,2.7,7.1,6.1,9.6,10.3
				c2.6,4.1,4.4,8.6,5.7,13.6c1.2,4.9,1.9,9.5,1.9,13.8C738.8,66.5,738.2,71.4,737,76.3z"/>
		</g>
	</g>
	<g>
		<g>
			<path class="st1" d="M825.1,99.9c-0.9-1.2-1.8-3-2.5-5.5c-0.7-2.4-1.4-5.2-2.1-8.2c-0.3-1.6-0.8-3.3-1.3-5.2
				c-0.5-1.9-1.3-3.8-2.2-5.7c-1-1.9-2.2-3.7-3.7-5.4c-1.5-1.7-3.4-3.2-5.7-4.4c2.6-0.8,4.9-1.9,7.1-3.4c2.1-1.5,4-3.2,5.5-5.3
				c1.6-2.1,2.8-4.3,3.6-6.9c0.9-2.5,1.3-5.1,1.3-7.9c0-3.4-0.6-6.7-1.9-9.6c-1.3-3-3-5.5-5.2-7.7c-2.2-2.2-4.8-3.9-7.7-5.2
				c-3-1.2-6.1-1.9-9.5-1.9H759v2.3h2.1c4.6,0,6.9,1.8,6.9,5.4v71.4c0,4.4-2.2,6.6-6.5,6.6H760v2.3h27.8v-2.3h-1.6
				c-4.3,0-6.4-2.2-6.4-6.6V66.7h9.7c4.1,0,7.8,1.3,11.1,3.9c3.4,2.6,5.9,7.2,7.7,13.7c0.2,0.7,0.4,1.4,0.5,2.3
				c0.2,0.8,0.4,1.6,0.5,2.4c0.4,2,0.9,4,1.5,6c0.6,2,1.3,3.8,2.2,5.4c0.9,1.6,2.1,2.9,3.4,3.9c1.4,1,3.2,1.6,5.5,1.6h10.6v-2.3
				C829.1,103.5,826.7,102.3,825.1,99.9z M800.9,62.4c-2.7,1.2-5.5,1.9-8.6,1.9h-12.6V20.1h12.6c3,0.1,5.9,0.7,8.6,1.9
				c2.7,1.2,5,2.8,7,4.8c2,2,3.5,4.3,4.7,7c1.1,2.6,1.7,5.5,1.7,8.5s-0.6,5.9-1.7,8.5c-1.1,2.7-2.7,5-4.7,7
				C805.9,59.6,803.6,61.2,800.9,62.4z"/>
		</g>
	</g>
	<g>
		<g>
			<path class="st1" d="M906,100.8l-32-42.6l28.5-34.1c2.1-2.3,4.7-3.6,7.6-4.1h1.6v-2.3h-20v2.3c2.9,0,5.1,0.3,6.4,0.8
				c1.4,0.6,1.7,1.8,1,3.8L860.9,69V25.5c0-3.7,2.3-5.5,7-5.5h2.2v-2.3h-30v2.3h2.1c4.6,0,6.8,1.8,6.8,5.5v71.4
				c0,4.4-2.2,6.6-6.6,6.6h-1.6v2.3H869v-2.3h-1.6c-4.4,0-6.6-2.2-6.6-6.6l0.4-24.5l5-6.5l23,31.1c1.4,2.3,1.5,4,0.4,5
				c-1.1,1-3.2,1.5-6.2,1.5v2.3h29.4v-2.3C909.6,103.6,907.3,102.7,906,100.8z"/>
		</g>
	</g>
	<g>
		<g>
			<path class="st1" d="M978,67c-2.8-4.1-7.5-7.4-14-9.8c-2-0.8-4-1.3-6-1.6c-2-0.3-4-0.5-6.1-0.7c-2-0.2-4-0.4-6-0.7
				c-2-0.3-4-0.8-5.9-1.5c-1.9-0.7-3.7-1.7-5.4-3.1c-1.7-1.4-3.3-3.3-4.6-5.7c-1.9-3.2-2.8-6.2-2.8-8.9c0-2.3,0.6-4.4,1.7-6.3
				c1.1-1.9,2.6-3.5,4.6-4.8c1.9-1.3,4.2-2.4,6.7-3.1c2.5-0.7,5.1-1.1,7.9-1.2c4,0,7.7,0.8,10.8,2.3c3.2,1.6,6,3.5,8.5,6
				c2.5,2.5,4.5,5.3,6.3,8.5c1.7,3.2,3.1,6.4,4.1,9.7l1.8-0.5c-1.8-7.9-2.6-16.2-2.5-24.7h-2.3c-0.1,0.9-0.3,1.6-0.8,2.1
				c-0.4,0.6-1.1,0.8-2.1,0.8c-0.4,0-1-0.1-1.8-0.3c-0.8-0.2-1.5-0.5-2.2-0.8c-2.8-1.6-5.8-2.9-9.2-4c-3.4-1.1-6.7-1.6-9.9-1.5
				c-4.9,0-9.2,0.6-12.9,1.9c-3.7,1.3-6.8,3-9.2,5.1c-2.5,2.1-4.3,4.6-5.5,7.4c-1.2,2.8-1.8,5.7-1.8,8.6c0,3.1,0.7,6.2,2.1,9.2
				c1.4,3,3.4,5.8,6.1,8.2c2.7,2.5,6,4.5,9.8,6.1c3.9,1.6,8.3,2.6,13.3,3c3.4,0.5,6.5,1.4,9.3,2.7c2.8,1.3,5.1,2.8,7,4.6
				c1.9,1.8,3.4,3.7,4.4,5.8c1,2.1,1.5,4.2,1.5,6.4c0,2-0.4,3.9-1.3,5.8c-0.9,1.9-2.2,3.6-4,5.2c-1.8,1.6-3.9,2.9-6.4,4
				c-2.6,1.1-5.5,1.8-8.9,2.1c-3.9,0-7.6-0.8-11.1-2.3c-3.5-1.5-6.7-3.5-9.6-6c-2.9-2.5-5.4-5.3-7.5-8.5c-2.1-3.2-3.7-6.4-4.8-9.8
				l-1.9,0.4c1.8,8.2,2.7,16.4,2.7,24.8h2.4c0.2-0.9,0.5-1.6,0.9-2.1c0.4-0.6,1.2-0.8,2.3-0.8c0.4,0,1.1,0.1,1.9,0.3
				c0.8,0.2,1.6,0.5,2.5,0.8c3.5,1.9,7.1,3.3,10.8,4.3c3.7,0.9,7.5,1.3,11.4,1.2c4.7-0.2,9-1,12.7-2.6c3.7-1.6,6.8-3.5,9.4-5.9
				c2.6-2.4,4.6-5.1,6-8.1c1.4-3,2.1-6.1,2.1-9.3C982.3,75.4,980.9,71.1,978,67z"/>
		</g>
	</g>
	<g>
		<g>
			<linearGradient id="SVGID_1_" gradientUnits="userSpaceOnUse" x1="214.6581" y1="67.174" x2="90.1468" y2="67.174">
				<stop  offset="0" style="stop-color:#BA2AC8"/>
				<stop  offset="0.4832" style="stop-color:#814C9C"/>
				<stop  offset="1" style="stop-color:#C65993"/>
			</linearGradient>
			<path class="st2" d="M205.1,82.5c-9.9,6.1-17.3,10.7-18.8,11.6c-0.1,0-0.1,0.1-0.1,0.1c0,0-0.1,0.1-0.1,0.1
				c-0.4,0.2-0.8,0.5-1.2,0.7l-0.1,0c-6.2,3.5-12.6,6.8-19,9.9l-0.1,0c-0.2,0.1-0.5,0.2-0.7,0.3c-0.2,0.1-0.5,0.2-0.7,0.4
				c-0.1,0.1-0.3,0.1-0.4,0.2c-5.1,2.3-9.9,3.8-14.4,4.6c-3,0.6-6.1,1-9.2,1.1l0-0.1h-0.6c-15.5,0-24.6-7.2-24.6-7.2
				c-2.3-1.5-4.4-3.2-6.4-5.1c-4-3.8-7.2-8.4-9.6-13.8c-2.4-5.4-3.5-11.4-3.4-18c0-6,1.1-11.6,3.3-16.8c2.2-5.2,5.2-9.8,9-13.8
				c2.8-3,6-5.5,9.6-7.5c0,0,1.4-0.8,3.7-1.9c0,0,0.1,0,0.1-0.1c0,0,0.1,0,0.1,0c1-0.5,2.2-1,3.6-1.4c0.2-0.1,0.3-0.1,0.5-0.2
				c5-1.7,11.8-3.3,19.5-2.5c0.1,0,0.1,0,0.2,0c3.2,0.3,6.6,1.1,10,2.4h0c2.3,0.8,4.7,1.7,6.9,2.6c3.1,1.2,6.2,2.5,9.2,3.9
				c0.1,0,0.2,0.1,0.3,0.1c0.2,0.1,0.4,0.1,0.5,0.2c0.6,0.3,1.2,0.6,1.8,0.8c0,0,0.1,0,0.1,0.1c6.4,3.1,17.7,9.6,30.5,17.3
				c-0.1,0.5-0.2,1-0.2,1.5c0,1.5,0.1,3.1,0.1,4.6v0.2c-1.6-1-3.1-2-4.7-3c0,0-0.1-0.1-0.1-0.1c-0.3-0.2-0.6-0.4-0.9-0.6l-12.2-7.3
				c-1.7-1-3.3-1.9-5-2.9c-0.2-0.1-0.4-0.2-0.5-0.3c-2.4-1.3-4.8-2.7-7.2-3.9c-0.1-0.1-0.2-0.1-0.2-0.1c-0.4-0.2-0.6-0.3-0.6-0.3
				c-0.7-0.4-1.3-0.7-2-1c-0.6-0.2-1.1-0.5-1.7-0.8c-1.4-0.7-2.8-1.4-4.3-2.1c-19.3-8.9-28.9-8.9-32.5-8.3c-2.9,0.6-5.5,1.7-7.9,3.4
				c-3.7,2.6-6.8,5.9-9.3,9.9c-2.5,4-4.3,8.6-5.6,13.5c-1.2,4.9-1.8,9.7-1.8,14.4c0,2.9,0.3,6,0.8,9.2c0.5,3.2,1.3,6.4,2.4,9.4
				c1.1,3.1,2.4,6.1,4.1,8.9c1.6,2.8,3.6,5.3,5.9,7.4c0.8,0.7,1.6,1.4,2.5,2c12.9,8.9,36.3-1.2,52-10c1.1-0.7,2.3-1.4,3.4-2.1
				c0.8-0.5,1.5-1,2.3-1.4c0,0,0.1-0.1,0.3-0.2c0.1,0,0.1-0.1,0.2-0.1c0.1-0.1,0.2-0.1,0.3-0.2c3.1-1.9,6.2-3.9,9.2-5.8l7.4-4.8
				c2-1.3,3.9-2.6,5.9-3.9C204.7,77.8,204.8,80.2,205.1,82.5z"/>
		</g>
		<g>
			
				<linearGradient id="SVGID_00000013880083427500954890000011422218771946541732_" gradientUnits="userSpaceOnUse" x1="245.1601" y1="67.3157" x2="378.0647" y2="67.3157">
				<stop  offset="0" style="stop-color:#BA2AC8"/>
				<stop  offset="0.4832" style="stop-color:#814C9C"/>
				<stop  offset="1" style="stop-color:#C65993"/>
			</linearGradient>
			<path style="fill:url(#SVGID_00000013880083427500954890000011422218771946541732_);" d="M348.5,50.1c-2.2-5.4-5.2-10-9.2-14
				c-3.9-4-8.5-7.2-13.8-9.5c-1-0.4-2-0.8-3-1.2v0c0,0,0,0-0.1,0c-0.5-0.2-4.8-2-11.6-2.3h0c-0.3,0-0.6,0-0.9,0h-0.5
				c-0.4,0-0.7,0-1.1,0c-0.3,0-0.6,0-0.9,0.1c-3.5,0.2-7.5,0.7-11.9,2c-0.1,0-0.3,0.1-0.4,0.1c-2.3,0.7-4.7,1.5-7.1,2.7
				c-4.9,1.9-9.6,4-14.3,6.2v0c-2,0.9-3.9,1.9-5.9,2.8l0,0l-3.2,1.5c-4.3,2.3-9.4,5.2-14.8,8.4c0.1,0.2,0.2,0.4,0.3,0.7
				c0,0,0,0.1,0,0.1c0.7,1,1.1,2.3,1.1,3.9v1.2c0,0.1,0,0.2,0,0.3c1.6-1,3.1-1.9,4.7-2.9c0-0.2,0-0.4,0-0.6l0.1,0.2l7.3-4.1v0
				c0,0,0,0,0,0c0.1,0,0.3-0.1,0.6-0.3c0.6-0.3,1.2-0.7,1.8-1l5.6-3.1c0.1-0.1,0.2-0.1,0.3-0.2c0.1-0.1,0.1-0.1,0.2-0.1
				c0,0,0.1,0,0.1,0c12.6-6.8,36.1-17.9,46.4-13.7c0.2,0.1,0.5,0.2,0.7,0.3c0.3,0.1,0.5,0.3,0.8,0.4c0.8,0.4,1.6,0.9,2.4,1.4
				c3.9,2.7,7.1,6.1,9.6,10.3c2.6,4.1,4.4,8.6,5.7,13.6c1.2,4.9,1.9,9.5,1.9,13.8c0,4.7-0.6,9.6-1.9,14.5c-1.3,4.9-3.2,9.5-5.7,13.5
				c-2.5,4-5.7,7.4-9.5,9.9c-1.6,1.1-3.3,1.9-5.1,2.6c-10.8,2.8-30.7-6.9-44.7-15c0,0,0,0-0.1,0c-0.1,0-0.1-0.1-0.2-0.1
				c-0.1,0-0.1-0.1-0.2-0.1c-2.4-1.4-4.7-2.7-6.6-4c-1.7-1.1-3.5-2.3-5.4-3.5l-7.2-4.8c-2.9-1.8-5.9-3.7-9.1-5.7
				c0.7,2.3,1.3,4.7,1.7,7.1C253.9,87,263,92.9,272.2,99c0,0,0.1,0,0.1,0.1c0.8,0.4,1.5,0.8,2.3,1.2c8.2,4.4,17,8.5,26.3,10.3
				c22.9,5.1,37.1-10.8,37.1-10.8l-0.1,0c0.6-0.6,1.3-1.1,1.8-1.7c3.8-4,6.8-8.7,8.9-14c2.1-5.3,3.1-11,3-16.9
				C351.7,61.1,350.7,55.4,348.5,50.1z M247.8,80.6c-0.5-1.1-1.2-2.1-1.9-3.1v0c-0.2-0.3-0.5-0.7-0.7-1c1.3,1.6,2.7,3.7,3.5,6
				c0,0.1,0,0.1,0.1,0.2C248.4,82,248.1,81.3,247.8,80.6z"/>
		</g>
		
			<linearGradient id="SVGID_00000109725768458185961030000013619843928256884380_" gradientUnits="userSpaceOnUse" x1="171.154" y1="65.4162" x2="272.2469" y2="65.4162">
			<stop  offset="0" style="stop-color:#8E44A6"/>
			<stop  offset="0.4832" style="stop-color:#814C9C"/>
			<stop  offset="1" style="stop-color:#9F3AB3"/>
		</linearGradient>
		<path style="fill:url(#SVGID_00000109725768458185961030000013619843928256884380_);" d="M272.2,92.7V99c0,0-0.1,0-0.1-0.1
			c-9.2-6.1-18.3-11.9-27.1-17.4c-6.7-4.2-13.1-8.2-19.2-12c-2.2-1.4-4.4-2.7-6.5-4c-5.4-3.3-10.4-6.3-15.1-9.1
			c-1.6-1-3.2-1.9-4.7-2.8c0,0-0.1-0.1-0.1-0.1c-14-8.3-23.7-13.8-26-15.1c-0.4-0.2-0.6-0.3-0.6-0.3l-1.8-6.4c0.1,0,0.2,0.1,0.3,0.1
			c0.2,0.1,0.4,0.1,0.5,0.2c0.6,0.2,1.2,0.5,1.8,0.8c0,0,0.1,0,0.1,0.1c6.4,3.1,17.7,9.6,30.5,17.3c6.4,3.9,13.2,8,19.8,12.1
			c2.2,1.4,4.3,2.7,6.5,4c4.4,2.7,8.6,5.4,12.7,7.9c3.2,2,6.2,3.9,9.1,5.7c10.1,6.3,17.4,11.1,19.3,12.3c0.1,0,0.1,0.1,0.2,0.1
			C272.1,92.6,272.1,92.6,272.2,92.7C272.2,92.7,272.2,92.7,272.2,92.7z"/>
		
			<linearGradient id="SVGID_00000150799196922842444490000011535334565204777639_" gradientUnits="userSpaceOnUse" x1="181.2932" y1="64.2192" x2="273.5144" y2="64.2192">
			<stop  offset="0" style="stop-color:#9B3CB0"/>
			<stop  offset="0.4832" style="stop-color:#814C9C"/>
			<stop  offset="1" style="stop-color:#A03AB4"/>
		</linearGradient>
		<path style="fill:url(#SVGID_00000150799196922842444490000011535334565204777639_);" d="M273.5,34.1L273.5,34.1l-1.8,6.9
			c0,0,0,0-0.1,0c0,0-0.1,0.1-0.2,0.1c-0.1,0.1-0.2,0.1-0.3,0.2c-3.2,2-21.6,13.5-40.5,25.2c-1.6,1-3.2,2-4.9,3
			c-7.4,4.6-14.6,9.1-20.8,13c-9.9,6.1-17.3,10.7-18.8,11.6c-0.1,0-0.1,0.1-0.1,0.1c-0.1,0-0.1,0.1-0.1,0.1l-4.8-3.7
			c0,0,0.1-0.1,0.3-0.2c0.1,0,0.1-0.1,0.2-0.1c0.1-0.1,0.2-0.1,0.3-0.2c3.6-2.4,19.5-13,37.4-24.5c1.6-1,3.2-2,4.8-3.1
			c8.6-5.4,17.4-10.9,25.4-15.6c5.4-3.2,10.5-6.1,14.8-8.4C268,36.6,271.1,35.1,273.5,34.1z"/>
		
			<linearGradient id="SVGID_00000044141068108910356880000007903800751853594545_" gradientUnits="userSpaceOnUse" x1="155.0826" y1="65.8446" x2="300.4053" y2="65.8446">
			<stop  offset="0" style="stop-color:#8E44A6"/>
			<stop  offset="0.4832" style="stop-color:#814C9C"/>
			<stop  offset="1" style="stop-color:#9F3AB3"/>
		</linearGradient>
		<path style="fill:url(#SVGID_00000044141068108910356880000007903800751853594545_);" d="M155.1,25.4c0,0,30.2,9,75.9,39.6
			s61.1,38.4,67.7,40.3c6.6,1.9-7.5,0.5-7.5,0.5l-39-23.1l-40-24l-40.2-23.6L155.1,25.4z"/>
	</g>
	<path class="st1" d="M249.1,100c-0.9-1.2-1.8-3-2.5-5.5c-0.7-2.4-1.4-5.2-2.1-8.2c-0.4-1.6-0.8-3.3-1.3-5.2
		c-0.5-1.9-1.3-3.8-2.2-5.7c-0.9-1.9-2.2-3.7-3.7-5.4c-1.5-1.7-3.4-3.2-5.7-4.4c2.6-0.8,5-1.9,7.1-3.4c2.1-1.5,4-3.2,5.6-5.3
		c1.5-2.1,2.8-4.3,3.6-6.9c0.9-2.5,1.3-5.1,1.3-7.9c0-3.4-0.6-6.7-1.9-9.6c-1.3-3-3-5.5-5.2-7.7c-2.2-2.2-4.8-3.9-7.7-5.2
		c-3-1.2-6.1-1.9-9.5-1.9h-9.2v2.3h0.9c3,0.1,5.9,0.7,8.6,1.9c2.7,1.2,5,2.8,7,4.8c2,2,3.5,4.3,4.7,7c1.1,2.6,1.7,5.5,1.7,8.5
		c0,3-0.6,5.9-1.7,8.5c-1.1,2.7-2.7,5-4.7,7c-2,2-4.3,3.6-7,4.8c-2.7,1.2-5.5,1.9-8.6,1.9h-0.9v2.3h1.1c4,0,4.7,1.3,8.1,3.9
		c3.4,2.6,5.9,7.2,7.7,13.7c0.2,0.7,0.4,1.4,0.5,2.3c0.2,0.8,0.4,1.6,0.5,2.4c0.4,2,0.9,4,1.5,6c0.6,2,1.3,3.8,2.2,5.4
		c0.9,1.6,2.1,2.9,3.4,3.9c1.4,1,3.2,1.6,5.4,1.6h10.6v-2.3C253.1,103.6,250.6,102.4,249.1,100z"/>
</g>
</svg>
